<?xml version="1.0" standalone="no"?><!DOCTYPE svg PUBLIC "-//W3C//DTD SVG 1.1//EN" "http://www.w3.org/Graphics/SVG/1.1/DTD/svg11.dtd"><svg t="1718686090139" class="icon" viewBox="0 0 1024 1024" version="1.1" xmlns="http://www.w3.org/2000/svg" p-id="12323" xmlns:xlink="http://www.w3.org/1999/xlink" width="200" height="200"><path d="M708.14216283 502.27134828L431.03251478 313.66104496c-8.63025501-6.27654898-31.53965997-6.27654898-33.42262331 17.57433765v377.22060664c2.03987839 23.85088663 25.4200248 24.32162809 33.42262331 17.57433887L708.14216283 537.4200248c7.21803188-4.39358442 17.1035962-21.96792206 0-35.14867652z m-259.84913681 155.34459259V381.91851839L650.39791021 519.84568593l-202.10488419 137.77025494z" p-id="12324"></path><path d="M511.84308619 30.27484914C247.12962352 30.27484914 31.84398609 249.95407099 31.84398609 519.84568593s215.28563743 489.57083679 479.9991001 489.570838 479.9991001-219.67922183 479.99910008-489.570838S776.55654885 30.27484914 511.84308619 30.27484914z m0 927.67397115C274.90335434 957.94882029 82.37020805 761.49283104 82.37020805 519.84568593S275.06026815 81.74255278 512 81.74255278 941.47287813 278.19854203 941.47287813 519.84568593 748.78281804 957.94882029 511.84308619 957.94882029z" p-id="12325"></path></svg>