<?xml version="1.0" standalone="no"?><!DOCTYPE svg PUBLIC "-//W3C//DTD SVG 1.1//EN" "http://www.w3.org/Graphics/SVG/1.1/DTD/svg11.dtd"><svg t="1718683598911" class="icon" viewBox="0 0 1024 1024" version="1.1" xmlns="http://www.w3.org/2000/svg" p-id="9355" xmlns:xlink="http://www.w3.org/1999/xlink" width="200" height="200"><path d="M510.978229 62.897515c-246.926856 0-447.091688 200.158692-447.091688 447.089641 0 246.934019 200.164832 447.089641 447.091688 447.089641 246.934019 0 447.087595-200.158692 447.087595-447.090665C958.065823 263.056208 757.911224 62.897515 510.978229 62.897515zM510.978229 897.466142c-213.647915 0-387.480009-173.828001-387.480009-387.477962 0-213.646891 173.832094-387.475915 387.480009-387.475915s387.474892 173.830047 387.474892 387.475915C898.454144 723.636095 724.626143 897.466142 510.978229 897.466142z" p-id="9356"></path><path d="M317.222363 316.233338 317.222363 703.740976l387.507638 0L704.730001 316.233338 317.222363 316.233338zM648.391878 646.379547 375.607098 646.379547 375.607098 373.59579l272.78478 0L648.391878 646.379547z" p-id="9357"></path></svg>